PathFileType	4	(X/Y/Z)	C:/Users/beibeiliu/ov580/test_trc/capture2\sequence.13_training_dense_left.trc
DataRate	CameraRate	NumFrames	NumMarkers	Units	OrigDataRate	OrigDataStartFrame	OrigNumFrames
120	120	16	19	mm	120	185	369
Frame#	Time	ThumbCMC			ThumbMCP			ThumbIP			ThumbTip			IndexMCP			IndexPIP			IndexTip			MiddleMCP			MiddlePIP			MiddleTip			RingMCP			RingPIP			RingTip			PinkyMCP			PinkyPIP			PinkyTip			BackHand1			BackHand2			BackHand3	
		X0	Y0	Z0	X1	Y1	Z1	X2	Y2	Z2	X3	Y3	Z3	X4	Y4	Z4	X5	Y5	Z5	X6	Y6	Z6	X7	Y7	Z7	X8	Y8	Z8	X9	Y9	Z9	X10	Y10	Z10	X11	Y11	Z11	X12	Y12	Z12	X13	Y13	Z13	X14	Y14	Z14	X15	Y15	Z15	X16	Y16	Z16	X17	Y17	Z17	X18	Y18	Z18	
184	1.53333	-151.021	125.674	-7.80464	-126.436	146.414	-8.60945	-105.58	156.8	-21.9293	-86.7907	157.654	-33.9553	-115.458	127.805	-69.4584	-90.4016	143.679	-71.6758	-68.3492	150.204	-49.856	-100.535	108.818	-75.4293	-77.6848	124.694	-80.3895	-52.2578	139.578	-62.232	-90.4334	91.533	-68.1135	-66.1595	106.131	-68.3941	-46.6619	125.326	-48.6284	-86.3933	74.9266	-53.4257	-63.5925	89.378	-56.4234	-43.4437	105.669	-44.7899	-136.841	70.9045	-37.2996	-153.377	63.7149	-12.5305	-159.231	93.8372	-30.3489	
185	1.54167	-147.484	129.003	-4.74734	-120.219	146.977	-7.61206	-97.7652	158.065	-21.0015	-77.7916	154.131	-33.3666	-109.589	132.21	-69.3032	-83.8783	142.841	-69.0881	-63.0786	147.182	-46.4525	-101.912	113.387	-75.2289	-72.7841	121.394	-77.1476	-47.4883	133.716	-59.1352	-94.2432	92.8532	-65.3481	-67.4082	104.873	-69.6176	-45.9656	121.006	-49.2514	-92.1432	76.2856	-52.3153	-61.6662	85.9545	-54.9549	-44.0208	101.901	-46.367	-139.023	75.5078	-38.6558	-154.949	70.522	-16.8576	-158.811	100.789	-30.4321	
186	1.55	-143.758	134.925	-3.63001	-112.754	147.763	-5.49194	-89.3048	158.24	-15.5149	-70.4572	153.721	-28.2181	-107.154	132.684	-65.8122	-73.7827	142.864	-65.6332	-56.3056	143.154	-45.7031	-100.24	109.934	-72.2595	-67.3155	121.014	-76.765	-41.5783	127.502	-58.6771	-90.9236	95.7359	-68.8863	-61.78	100.384	-68.4872	-39.1228	112.816	-47.5533	-89.0256	72.5778	-55.9636	-66.2645	82.6516	-58.5168	-42.4542	99.4812	-48.7545	-139.321	74.9652	-38.1663	-158.377	73.3411	-19.437	-159.304	107.036	-28.1286	
187	1.55833	-136.551	132.817	-3.80827	-106.349	143.453	-4.74587	-79.7898	152.302	-15.5576	-60.5911	148.147	-30.0603	-98.4792	133.671	-67.8559	-71.4397	140.125	-68.7718	-47.2873	136.513	-42.7728	-95.4627	114.949	-76.0044	-64.6299	114.458	-78.6425	-38.801	118.401	-60.2973	-91.3319	95.9226	-71.3658	-62.861	98.5934	-71.229	-39.4512	103.437	-54.0558	-92.4785	71.6574	-59.8343	-65.8981	76.3421	-61.8596	-42.0268	88.5233	-50.8414	-138.762	85.9001	-42.8495	-157.775	77.5495	-20.2098	-153.91	109.524	-32.293	
188	1.56667	-128.161	136.502	-3.00972	-94.5896	142.401	-5.17485	-69.4913	145.242	-17.682	-51.81	135.269	-33.1633	-93.8525	133.773	-67.7307	-64.5718	135.38	-69.1643	-41.2201	125.118	-46.4959	-96.0473	109.576	-74.9416	-63.2356	111.302	-80.1853	-32.2362	110.318	-58.7385	-92.5382	90.4461	-73.0678	-61.9423	89.1439	-74.3666	-36.9765	94.3965	-55.3669	-95.4392	72.9249	-64.0274	-71.3544	69.6462	-66.1311	-44.935	75.015	-55.494	-140.965	85.3889	-46.2228	-161.952	85.3743	-18.6363	-150.081	116.811	-33.0573	
189	1.575	-118.839	136.092	-2.131	-87.8712	132.822	-7.096	-61.442	136.202	-16.1854	-43.3487	126.015	-35.1159	-90.553	134.031	-66.2666	-58.3548	128.743	-70.0224	-36.6631	117.508	-51.6516	-94.0908	110.73	-76.7409	-63.3378	102.831	-83.4481	-33.5756	95.0273	-64.0091	-93.4153	92.8549	-75.6714	-62.4846	82.1047	-77.8126	-36.6718	83.489	-60.2469	-100.807	70.7317	-67.1632	-76.8358	68.6506	-69.8183	-47.4169	69.3747	-60.5202	-144.46	94.6969	-42.0537	-162.927	92.6003	-18.604	-144.875	124.218	-27.7117	
190	1.58333	-109.227	136.08	0.639911	-76.634	128.128	-6.34907	-53.0564	125.322	-19.4816	-39.3897	115.245	-36.7227	-85.2563	129.007	-65.1247	-57.435	117.298	-70.8766	-33.354	103.499	-52.1375	-91.2488	108.763	-77.93	-59.6733	99.1445	-85.097	-35.1156	83.9122	-69.8355	-97.9549	86.5427	-74.8414	-67.935	80.2039	-80.8253	-40.9135	70.0973	-65.2762	-107.662	72.0472	-64.8815	-79.9215	64.9732	-73.0366	-49.7905	61.8921	-64.6214	-139.891	94.7227	-44.7019	-157.906	96.7426	-20.4792	-140.519	128.938	-23.3968	
191	1.59167	-102.622	130.418	-0.213453	-73.4913	121.584	-2.72212	-51.4167	116.012	-16.8424	-39.657	103.193	-38.0901	-77.668	125.117	-65.0613	-50.1136	111.593	-71.1403	-33.5531	91.4818	-55.5236	-87.9295	108.142	-77.4828	-62.579	92.8589	-86.9888	-33.7993	75.029	-72.4113	-93.4332	91.7293	-77.4092	-68.4365	74.1183	-82.25	-44.5077	62.2622	-67.2013	-106.686	74.9092	-67.3193	-84.2364	62.1133	-75.9746	-54.7983	57.3101	-63.8359	-139.554	100.536	-44.353	-155.238	103.198	-20.444	-135.105	127.643	-22.6061	
192	1.6	-95.4687	129.219	5.55007	-66.3318	116.159	-2.9642	-47.4827	107.316	-19.6241	-32.9395	94.5313	-38.4477	-70.3644	122.654	-65.4461	-49.9496	104.994	-70.7387	-29.5101	84.9215	-52.7712	-85.6691	107.314	-75.1675	-60.812	88.5066	-85.6885	-36.0318	68.4581	-74.7687	-93.5511	87.8246	-77.0182	-68.1212	71.2559	-83.0306	-43.4488	59.6063	-65.88	-109.703	71.748	-68.8205	-86.2954	58.4935	-76.5842	-58.7508	48.1805	-64.8463	-137.086	104.206	-40.4507	-152.111	109.98	-14.3726	-127.329	131.035	-20.7218	
193	1.60833	-91.9223	126.363	8.36598	-65.8299	107.786	-0.838571	-43.6336	98.3117	-18.4425	-30.9063	87.2146	-34.5093	-63.87	117.637	-64.0685	-42.4343	99.5482	-67.5206	-31.3593	72.9488	-52.3238	-77.1622	103.21	-76.5367	-57.763	83.9918	-84.8307	-36.5944	59.5178	-71.9161	-90.6965	84.8446	-77.5182	-66.7031	67.4465	-80.9545	-48.5865	51.2263	-66.0589	-107.389	75.416	-66.729	-85.4795	56.0068	-75.8416	-58.5431	43.1993	-59.0944	-131.914	104.247	-43.7888	-151.767	110.341	-18.4508	-119.822	132.253	-20.3853	
194	1.61667	-87.2827	118.726	5.53841	-60.919	101.136	1.17354	-43.9181	88.9752	-12.1917	-34.9406	75.3818	-34.187	-61.2415	110.483	-61.5835	-38.4153	88.3825	-65.291	-29.6914	66.9008	-52.0311	-74.1879	99.939	-73.7191	-52.9768	75.8536	-82.8395	-38.6378	51.0219	-70.3595	-90.8623	84.0502	-74.2858	-69.4126	62.5866	-80.7292	-48.1076	43.1983	-59.737	-107.503	72.3453	-67.7121	-83.153	53.3018	-73.2199	-62.031	39.8833	-56.6354	-130.142	105.605	-41.2459	-145.463	111.341	-16.1506	-117.195	129.689	-18.5362	
195	1.625	-84.7143	112.728	10.5705	-61.5156	92.0738	4.06305	-40.5558	78.8279	-12.5902	-33.6036	64.0956	-29.102	-58.0148	105.489	-58.1213	-37.7254	78.0385	-64.9842	-31.9678	54.3365	-50.0103	-71.8699	93.4695	-73.8857	-56.7527	70.3738	-83.2164	-38.1754	41.0454	-66.8844	-90.8707	78.7406	-73.9464	-71.3963	55.5798	-80.6697	-54.9408	35.3265	-62.1773	-105.548	69.2579	-68.6036	-87.967	51.0056	-74.7974	-66.0796	35.451	-54.799	-125.246	106.61	-41.4694	-139.004	112.851	-17.9242	-108.681	126.935	-21.1843	
196	1.63333	-82.3429	105.948	9.21409	-60.9592	83.915	5.64358	-41.5002	67.8973	-8.59399	-33.9606	51.6394	-33.3715	-53.7	97.5102	-56.9579	-40.4015	72.1605	-64.4497	-36.4177	42.5006	-50.7716	-72.1651	88.8915	-70.9168	-55.8283	59.6205	-81.4947	-39.5816	32.293	-66.2563	-88.3212	75.911	-74.6693	-67.8725	51.3093	-78.4319	-56.8608	29.6421	-60.4034	-106.355	68.4672	-67.4561	-89.8164	45.8227	-74.7273	-73.1201	27.5051	-55.0477	-123.431	104.584	-40.539	-138.748	113.969	-16.7514	-103.174	125.63	-14.7963	
197	1.64167	-75.4721	100.827	12.1911	-60.0904	75.2121	6.63152	-43.8553	57.7397	-12.4035	-36.9474	42.4001	-31.5115	-50.1571	88.4052	-56.9855	-39.5207	59.7082	-63.3737	-37.5868	34.7768	-52.1518	-72.1881	82.466	-71.034	-54.941	58.3106	-80.2567	-45.0408	23.8773	-67.8042	-87.866	73.45	-73.2133	-72.7372	47.8357	-79.0212	-65.8577	21.8842	-62.0471	-107.651	67.3654	-67.686	-94.2737	42.8265	-74.5375	-78.9188	22.6509	-59.7362	-117.918	104.248	-38.5723	-134.693	112.8	-11.2703	-98.7259	119.609	-16.4183	
198	1.65	-73.6726	94.062	17.0513	-60.7907	67.1384	4.32901	-46.1381	50.2546	-10.1654	-42.1892	36.0359	-34.7222	-51.5356	83.7448	-53.699	-37.2746	56.3499	-63.3785	-42.4585	26.5471	-55.8399	-69.6293	76.6598	-72.3186	-59.1174	48.5944	-81.7445	-51.0742	18.2474	-70.3471	-91.6082	71.3151	-72.3563	-79.5285	41.409	-80.5495	-69.6852	18.7411	-65.4059	-111.901	67.7475	-65.8831	-100.15	41.5829	-76.1363	-86.9389	18.647	-61.711	-115.729	103.229	-38.7281	-128.393	112.61	-10.0541	-95.2572	117.965	-10.789	
199	1.65833	-74.3864	86.3455	12.8736	-60.7158	60.7099	0.24954	-47.0272	42.4727	-18.5843	-47.7762	32.298	-37.5424	-51.0979	77.9544	-56.8103	-42.0751	52.0937	-65.7493	-44.7547	21.6533	-59.1223	-66.2458	76.7284	-69.7928	-60.9747	50.8009	-81.4121	-59.8987	17.4095	-76.0992	-88.7894	72.3739	-71.2448	-80.9809	44.6828	-80.8726	-77.2334	14.8324	-67.6099	-111.021	67.5115	-70.4193	-102.35	45.8314	-77.202	-95.0061	18.251	-65.0378	-108.968	104.199	-33.5888	-124.774	114.117	-7.32664	-85.1029	115.068	-9.59396	
